<svg width="120" height="120" viewBox="0 0 120 120" fill="none" xmlns="http://www.w3.org/2000/svg">
<path d="M56.51 108.074C58.685 109.343 61.315 109.343 63.49 108.074C73.2302 102.392 100 84.5422 100 60V30.544C100 27.2092 97.9314 24.2243 94.809 23.0534L62.809 11.0534C60.9979 10.3742 59.0021 10.3742 57.191 11.0534L25.191 23.0534C22.0686 24.2243 20 27.2092 20 30.544V60C20 84.5422 46.7698 102.392 56.51 108.074Z" stroke="white" stroke-width="4" stroke-linecap="round" stroke-linejoin="round"/>
<path fill-rule="evenodd" clip-rule="evenodd" d="M100 60C100 90 60 110 60 110C60 110 20 90 20 60V25L60 10L100 25V60ZM63 37.25V40.25V53H75.75H78.75V59H75.75H63V71.75V74.75H57V71.75V59H44.25H41.25V53H44.25H57V40.25V37.25H63Z" fill="white" fill-opacity="0.75"/>
</svg>
